<?xml version="1.0" standalone="no"?>
<!DOCTYPE svg PUBLIC "-//W3C//DTD SVG 1.1//EN" "http://www.w3.org/Graphics/SVG/1.1/DTD/svg11.dtd" >
<svg xmlns="http://www.w3.org/2000/svg" xmlns:xlink="http://www.w3.org/1999/xlink" version="1.1">
<metadata>
Created by FontForge 20190801 at Sun Jun 19 14:55:00 2022
 By www-data
Created by iconfont
</metadata>
<defs>
<font id="iconfont" horiz-adv-x="1024" >
  <font-face 
    font-family="iconfont"
    font-weight="400"
    font-stretch="normal"
    units-per-em="1024"
    panose-1="2 0 5 3 0 0 0 0 0 0"
    ascent="896"
    descent="-128"
    bbox="0 -128 1536 896"
    underline-thickness="0"
    underline-position="10"
    unicode-range="U+E600-E71D"
  />
<missing-glyph 
 />
    <glyph glyph-name=".notdef" 
 />
    <glyph glyph-name=".null" horiz-adv-x="0" 
 />
    <glyph glyph-name="nonmarkingreturn" horiz-adv-x="341" 
 />
    <glyph glyph-name="cuowu" unicode="&#xe600;" 
d="M887 150q29 -31 43 -56.5t-4 -58.5q-4 -6 -11.5 -15t-15 -17t-15 -14.5t-13.5 -10.5q-25 -15 -60 -8t-62 35l-242 242l-131 -131q-61 -61 -99 -100t-76.5 -48t-68.5 18l-30 29q-6 7 -7 9q-11 14 -13 29t2.5 29t14 27.5t20.5 24.5q9 8 33 31l55 57l75 74l87 86l-94 93
l-165 163q-27 27 -27.5 53t17.5 52q9 11 24 24.5t21 17.5q31 21 55.5 18.5t49.5 -28.5l90 -89l169 -165l248 246q24 24 53 31.5t55 -13.5l7 -5q6 -4 11 -9l11 -10q5 -4 7 -5q28 -27 27.5 -58t-27.5 -58l-45 -46q-28 -28 -61 -60l-148 -148l142 -138q31 -31 56 -57z" />
    <glyph glyph-name="hollow-question" unicode="&#xe60c;" 
d="M512 -96q-130 0 -242 66q-109 63 -172 172q-66 112 -66 242t66 242q63 109 172 172q112 66 242 66t242 -66q109 -63 172 -172q66 -112 66 -242t-66 -242q-63 -109 -172 -172q-112 -66 -242 -66zM512 -6q106 0 197 53q88 52 140 140q53 91 53 197t-53 197q-52 88 -140 140
q-91 53 -197 53t-197 -53q-88 -52 -140 -140q-53 -91 -53 -197t53 -197q52 -88 140 -140q91 -53 197 -53zM520 657q76 0 122 -40.5t46 -110.5q0 -57 -29 -95q-12 -13 -66 -60q-19 -17 -30.5 -39.5t-11.5 -49.5v-11h-88v11q0 46 15 76t90 97l9 11q21 25 21 54q0 38 -21.5 60
t-61.5 22q-51 0 -72 -32q-19 -26 -19 -75h-88q0 86 49.5 134t134.5 48zM482 192h50q8 0 14 -6t6 -14v-56q0 -8 -6 -14t-14 -6h-50q-8 0 -14 6t-6 14v56q0 8 6 14t14 6z" />
    <glyph glyph-name="zhang" unicode="&#xe610;" 
d="M795 59h-566q-16 0 -26.5 11t-10.5 26t10.5 26t26.5 11h567q15 0 25.5 -11t10.5 -26t-10.5 -26t-26.5 -11zM832 388h-191h-2q-19 0 -32.5 13.5t-13.5 31.5q1 22 18 36q43 25 68.5 69t25.5 96t-26 96.5t-70.5 70.5t-96.5 26t-96.5 -26t-70.5 -70.5t-26 -96.5t25.5 -96
t68.5 -69q19 -14 19 -37q0 -17 -11 -29.5t-28 -14.5h-201q-15 0 -25.5 -10.5t-10.5 -25.5v-108q0 -15 10.5 -25.5t25.5 -10.5h640q15 0 25.5 10.5t10.5 25.5v108q0 15 -10.5 25.5t-25.5 10.5z" />
    <glyph glyph-name="shangyiye" unicode="&#xe615;" 
d="M421 381l363 363q25 25 25 60.5t-25 60.5t-60.5 25t-60.5 -25l-423 -423q-25 -26 -25 -61t25 -60l423 -424q25 -25 60.5 -25t60.5 25t25 60.5t-25 60.5z" />
    <glyph glyph-name="jiajianzujianjiahao" unicode="&#xe64d;" 
d="M427 469h-341q-36 0 -61 -25t-25 -60.5t25 -60t61 -24.5h341v-341q0 -36 25 -61t60.5 -25t60 25t24.5 61v341h341q36 0 61 25t25 60.5t-25 60t-61 24.5h-341v341q0 36 -25 61t-60.5 25t-60 -25t-24.5 -61v-341z" />
    <glyph glyph-name="qianzhangliebiao" unicode="&#xe64f;" horiz-adv-x="1150" 
d="M235 630q-21 0 -35 -14.5t-14 -35t14 -35t34.5 -14.5t35 14.5t14.5 35t-14.5 35t-34.5 14.5zM235 235q-21 0 -35 -14.5t-14 -35t14 -35t34.5 -14.5t35 14.5t14.5 35t-14.5 35t-34.5 14.5zM235 432q-21 0 -35 -14.5t-14 -34.5t14 -34.5t34.5 -14.5t35 14.5t14.5 34.5
t-14.5 34.5t-34.5 14.5zM728 235h-296q-20 0 -34.5 -14.5t-14.5 -35t14.5 -35t34.5 -14.5h296q20 0 34.5 14.5t14.5 35t-14.5 35t-34.5 14.5zM728 630h-296q-20 0 -34.5 -14.5t-14.5 -35t14.5 -35t34.5 -14.5h296q13 0 24.5 6.5t18 18t6.5 25t-6.5 24.5t-18 18t-24.5 7z
M728 432h-296q-20 0 -34.5 -14.5t-14.5 -34.5t14.5 -34.5t34.5 -14.5h296q20 0 34.5 14.5t14.5 34.5t-14.5 34.5t-34.5 14.5zM639 -114h-470q-46 0 -84.5 22.5t-61.5 61.5t-23 85v672q0 46 23 85t61.5 61.5t84.5 22.5h626q45 0 84 -22.5t61.5 -61.5t22.5 -85v-367h-87v367
q0 34 -24 58t-57 24h-626q-34 0 -58 -24t-24 -58v-672q0 -34 24 -58t58 -24h470v-87zM979 49q-9 9 -15 22t-6 27q1 26 20 44v0q6 6 13 11q17 14 26 34t9 42q0 29 -14.5 53t-38.5 38t-53 14t-53.5 -14t-38.5 -38t-14 -53q0 -22 9 -42t25 -34q8 -5 14 -11v0q19 -18 19 -44
q0 -14 -5.5 -27t-15.5 -22h-156q-6 0 -10.5 -4.5t-4.5 -10.5v-96h462v96q0 6 -4.5 10.5t-11.5 4.5h-156zM722 -95h396v-33h-396v33z" />
    <glyph glyph-name="zhushiliebiao" unicode="&#xe650;" horiz-adv-x="1209" 
d="M223 643q-14 0 -26 -7.5t-17.5 -21t-2.5 -27.5t13 -24t24 -12.5t27 3t21 17t8 25.5q0 20 -14 33.5t-33 13.5zM223 269q-14 0 -26 -8t-17.5 -21t-2.5 -27t13 -24t24 -12.5t27 2.5t21 17t8 26q0 20 -14 33.5t-33 13.5zM223 456q-14 0 -26 -8t-17.5 -21t-2.5 -27t13 -24
t24 -12.5t27 3t21 17t8 25.5q0 20 -14 33.5t-33 13.5zM691 269h-281q-19 0 -33 -13.5t-14 -33t14 -33.5t33 -14h281q19 0 33 14t14 33.5t-14 33t-33 13.5zM691 643h-281q-13 0 -23.5 -6t-17 -17t-6.5 -23.5t6.5 -23.5t17 -17t23.5 -6h281q12 0 23 6t17.5 17t6.5 23.5
t-6.5 23.5t-17.5 17t-23 6zM691 456h-281q-13 0 -23.5 -6t-17 -17t-6.5 -23.5t6.5 -23.5t17 -17t23.5 -6h281q12 0 23 6t17.5 17t6.5 23.5t-6.5 23.5t-17.5 17t-23 6zM607 -62h-447q-43 0 -80 21.5t-58.5 58t-21.5 80.5v638q0 43 21.5 80t58.5 58.5t80 21.5h594
q43 0 80 -21.5t58.5 -58.5t21.5 -80v-348h-83v348q0 32 -22.5 54.5t-54.5 22.5h-594q-32 0 -54.5 -22.5t-22.5 -54.5v-638q0 -32 22.5 -55t54.5 -23h447v-82zM1144 340h-339q-52 0 -52 -53v-235q0 -52 52 -52h339q53 0 53 52v235q0 53 -53 53zM1105 105h-261q-13 0 -13 13
t13 13h261q13 0 13 -13t-13 -13zM1105 209h-261q-13 0 -13 13t13 13h261q13 0 13 -13t-13 -13zM962 52h-157v-135q0 -7 4 -12.5t10 -8t13 -1.5t11 6l119 114v37zM962 52z" />
    <glyph glyph-name="suolvetu" unicode="&#xe651;" horiz-adv-x="1158" 
d="M238 626q-15 0 -27.5 -8.5t-18.5 -22.5t-3 -29t13.5 -25.5t25.5 -13.5t29 3t22.5 18.5t8.5 27.5q0 21 -14.5 35.5t-35.5 14.5zM238 226q-15 0 -27.5 -8.5t-18.5 -22.5t-3 -29t13.5 -25.5t25.5 -13.5t29 3t22.5 18.5t8.5 27.5q0 21 -14.5 35.5t-35.5 14.5zM238 426
q-21 0 -35.5 -14.5t-14.5 -35.5t14.5 -35.5t35.5 -14.5t35.5 14.5t14.5 35.5t-14.5 35.5t-35.5 14.5zM738 226h-300q-13 0 -25 -6.5t-18.5 -18t-6.5 -25t6.5 -25t18.5 -18.5t25 -7h300q13 0 25 7t18.5 18.5t6.5 25t-6.5 25t-18.5 18t-25 6.5zM738 626h-300q-13 0 -25 -6.5
t-18.5 -18.5t-6.5 -25t6.5 -25t18.5 -18.5t25 -6.5h300q13 0 25 6.5t18.5 18.5t6.5 25t-6.5 25t-18.5 18.5t-25 6.5zM738 426h-300q-13 0 -25 -6.5t-18.5 -18.5t-6.5 -25t6.5 -25t18.5 -18.5t25 -6.5h300q13 0 25 6.5t18.5 18.5t6.5 25t-6.5 25t-18.5 18.5t-25 6.5z
M648 -128h-477q-46 0 -85.5 23t-62.5 62.5t-23 85.5v682q0 46 23 85.5t62.5 62.5t85.5 23h634q47 0 86 -23t62 -62.5t24 -85.5v-372h-89v372q0 34 -24 58t-59 24h-634q-34 0 -58 -24t-24 -58v-682q0 -34 24 -58t58 -24h477v-89zM931 226q10 0 17.5 -7.5t7.5 -17.5v-101
q0 -11 -7.5 -18.5t-17.5 -7.5h-101q-11 0 -18.5 7.5t-6.5 18.5v101q-1 10 6.5 17.5t18.5 7.5h101zM931 24q10 0 17.5 -7.5t7.5 -17.5v-102q0 -10 -7.5 -17.5t-17.5 -7.5h-101q-11 0 -18.5 7.5t-6.5 17.5v102q-1 10 6.5 17.5t18.5 7.5h101zM1133 226q11 0 18 -7.5t7 -17.5
v-101q0 -11 -7 -18.5t-18 -7.5h-101q-10 0 -17.5 7.5t-7.5 18.5v101q0 10 7.5 17.5t17.5 7.5h101zM1133 24q11 0 18 -7.5t7 -17.5v-102q0 -10 -7 -17.5t-18 -7.5h-101q-10 0 -17.5 7.5t-7.5 17.5v102q-1 10 7 17.5t18 7.5h101z" />
    <glyph glyph-name="icon_shuqian" unicode="&#xe652;" 
d="M725 639h-426q-18 0 -30.5 -12.5t-12.5 -30.5t12.5 -30.5t30.5 -12.5h426q18 0 30.5 12.5t12.5 30.5t-12.5 30.5t-30.5 12.5zM768 853h-512q-46 0 -85.5 -23t-62.5 -62t-23 -85v-650q0 -35 18.5 -63t50.5 -41.5t65.5 -7.5t59.5 30l209 199q10 9 24 9t24 -9l209 -199
q16 -16 36.5 -24t41.5 -8q24 0 46 9q32 14 50.5 42t18.5 63v650q0 46 -22.5 85t-62 62t-85.5 23zM853 33q0 -18 -18 -26t-31 5l-209 199q-23 22 -53 29.5t-60 0t-53 -29.5l-209 -199q-8 -8 -19 -8q-7 -1 -13 2q-17 9 -17 27v650q0 35 25 60t60 25h512q35 0 60 -25t25 -60
v-650z" />
    <glyph glyph-name="caidan" unicode="&#xe655;" horiz-adv-x="1536" 
d="M0 896h1536v-205h-1536v205zM0 486h1536v-204h-1536v204zM0 77h1536v-205h-1536v205z" />
    <glyph glyph-name="xiala" unicode="&#xe656;" 
d="M255 233q9 -9 22.5 -9t22.5 9l233 234l234 -234q6 -6 14.5 -8.5t17 -0.5t14.5 8.5t8 15t-0.5 17t-8.5 14.5l-256 256q-9 9 -22.5 9t-22.5 -9l-256 -256q-10 -10 -10 -23t10 -23z" />
    <glyph glyph-name="zuixiaohua" unicode="&#xe657;" 
d="M192 384q0 13 9.5 22.5t22.5 9.5h597q14 0 23 -9.5t9 -22.5t-9 -22.5t-23 -9.5h-597q-13 0 -22.5 9.5t-9.5 22.5z" />
    <glyph glyph-name="cha" unicode="&#xe659;" 
d="M276 620q9 9 22.5 9t22.5 -9l427 -427q6 -6 8.5 -14.5t0.5 -17t-8 -14.5t-14.5 -8t-17 0.5t-14.5 8.5l-427 427q-9 9 -9 22.5t9 22.5zM748 620q9 -9 9 -22.5t-9 -22.5l-427 -427q-9 -9 -22 -8.5t-22 9.5t-9.5 22t8.5 22l427 427q9 9 22.5 9t22.5 -9z" />
    <glyph glyph-name="lingcunwei" unicode="&#xe65b;" 
d="M298 515v40q0 2 1.5 3.5t3.5 1.5h91q2 0 3.5 -1.5t1.5 -3.5v-40q0 -2 -1.5 -3.5t-3.5 -1.5h-91q-2 0 -3.5 1.5t-1.5 3.5zM512 896q-104 0 -199 -40q-92 -39 -163 -110t-110 -163q-40 -95 -40 -199t40 -199q39 -92 110 -163t163 -110q95 -40 199 -40t199 40q92 39 163 110
t110 163q40 95 40 199t-40 199q-39 92 -110 163t-163 110q-95 40 -199 40zM392 62v242h215v-242h-215zM464 568v74h289v17l93 -54l-93 -54v17h-289zM178 656v3q1 20 15.5 33.5t34.5 13.5h372q34 0 57 -24l17 -17h-237v-125h361q23 -23 23 -56v-371q0 -21 -14.5 -35.5
t-35.5 -15.5h-111v270q0 11 -7 18t-18 7h-271q-11 0 -18 -7t-7 -18v-270h-111q-20 0 -34.5 14t-15.5 34v3v543z" />
    <glyph glyph-name="baocun" unicode="&#xe65c;" 
d="M411 555v-40q0 -2 -1 -3.5t-4 -1.5h-90q-2 0 -3.5 1.5t-1.5 3.5v40q0 2 1.5 3.5t3.5 1.5h90q2 0 3.5 -1.5t1.5 -3.5zM512 896q-104 0 -199 -40q-92 -39 -163 -110t-110 -163q-40 -95 -40 -199t40 -199q39 -92 110 -163t163 -110q95 -40 199 -40t199 40q92 39 163 110
t110 163q40 95 40 199t-40 199q-39 92 -110 163t-163 110q-95 40 -199 40zM619 62h-214v242h214v-242zM834 113q0 -21 -15 -36t-36 -15h-110v270q0 10 -7.5 17.5t-17.5 7.5h-272q-10 0 -17.5 -7.5t-7.5 -17.5v-270h-110q-21 0 -36 15t-15 36v542q0 21 15 36t36 15h372
q33 0 57 -24l141 -142q23 -24 23 -57v-370z" />
    <glyph glyph-name="dayin" unicode="&#xe65d;" 
d="M512 896q-104 0 -199 -40q-92 -39 -163 -110t-110 -163q-40 -95 -40 -199t40 -199q39 -92 110 -163t163 -110q95 -40 199 -40t199 40q92 39 163 110t110 163q40 95 40 199t-40 199q-39 92 -110 163t-163 110q-95 40 -199 40zM333 521v184h356v-177l-1 -93l-355 2l-1 84h1
zM696 143v-80h-366v78h1l-1 34l365 -1zM860 223q0 -33 -23.5 -56.5t-57.5 -23.5h-51v61h-428v-60l1 -1h-56q-34 0 -57.5 23.5t-23.5 56.5v218q0 33 23.5 56.5t57.5 23.5h53v-121h426l5 121h50q34 0 57.5 -23.5t23.5 -56.5v-218z" />
    <glyph glyph-name="dayin1" unicode="&#xe65e;" 
d="M512 896q-104 0 -199 -40q-92 -39 -163 -110t-110 -163q-40 -95 -40 -199t40 -199q39 -92 110 -163t163 -110q95 -40 199 -40t199 40q92 39 163 110t110 163q40 95 40 199t-40 199q-39 92 -110 163t-163 110q-95 40 -199 40zM748 137q-11 -20 -23 -29t-27 -9h-523
q-18 0 -31 13t-13 31v482q0 18 13 31t31 13h282l89 -88h265q10 0 16.5 -6.5t6.5 -15.5v-67h-466l-120 -207h68l87 148h490z" />
    <glyph glyph-name="yidong1" unicode="&#xe65f;" 
d="M972 609q-43 87 -113.5 152t-160 100t-186.5 35q-104 0 -199 -40q-92 -39 -163 -110t-110 -163q-40 -95 -40 -199t40 -199q39 -92 110 -163t163 -110q95 -40 199 -40q133 0 248.5 64.5t186 177t77 244.5t-51.5 251zM954 251l-371 58q-10 2 -15 -6l-206 -315q-4 -7 -13 -7
q-5 0 -9 3t-4 9l3 811q0 9 8.5 13t15.5 -2l604 -541q5 -4 4.5 -10t-5.5 -10t-12 -3z" />
    <glyph glyph-name="yidong" unicode="&#xe660;" 
d="M512 896q-104 0 -199 -40q-92 -39 -163 -110t-110 -163q-40 -95 -40 -199t40 -199q39 -92 110 -163t163 -110q95 -40 199 -40t199 40q92 39 163 110t110 163q40 95 40 199t-40 199q-39 92 -110 163t-163 110q-95 40 -199 40zM782 182v135h-203v-203h135l-202 -202
l-202 202h135v203h-203v-135l-202 202l202 202v-135h203v203h-135l202 202l202 -202h-135v-203h203v135l202 -202z" />
    <glyph glyph-name="shijidaxiao1" unicode="&#xe661;" 
d="M512 896q-104 0 -199 -40q-92 -39 -163 -110t-110 -163q-40 -95 -40 -199t40 -199q39 -92 110 -163t163 -110q95 -40 199 -40t199 40q92 39 163 110t110 163q40 95 40 199t-40 199q-39 92 -110 163t-163 110q-95 40 -199 40zM148 696q0 5 4 9t10 4h155q8 0 12 -6.5
t0 -13.5t-12 -7h-142v-142q0 -6 -4 -10t-9.5 -4t-9.5 4t-4 10v156zM317 59h-155q-6 0 -10 4t-4 9v156q0 6 4 9.5t9.5 3.5t9.5 -3.5t4 -9.5v-142h142q8 0 12 -7t0 -13.5t-12 -6.5zM212 123v522h600v-522h-600zM876 72q0 -5 -4 -9t-10 -4h-155q-6 0 -10 4t-4 9.5t4 9.5t10 4
h142v142q0 8 6.5 12t13.5 0t7 -12v-156zM862 526q-5 0 -9 4t-4 10v142h-142q-6 0 -10 4t-4 9.5t4 9.5t10 4h155q6 0 10 -4t4 -9v-156q0 -6 -4 -10t-10 -4zM266 177h492v414h-492v-414z" />
    <glyph glyph-name="heshikuandu" unicode="&#xe662;" 
d="M230 384v-154l94 81v-63h376v63l94 -81v154h-564zM230 384v-154l94 81v-63h376v63l94 -81v154h-564zM512 896q-104 0 -199 -40q-92 -39 -163 -110t-110 -163q-40 -95 -40 -199t40 -199q39 -92 110 -163t163 -110q95 -40 199 -40t199 40q92 39 163 110t110 163
q40 95 40 199t-40 199q-39 92 -110 163t-163 110q-95 40 -199 40zM842 54h-48v176l-94 -81v52h-376v-52l-94 81v-176h-48v377h660v-377zM842 478h-660v236h48v-189h564v189h48v-236zM230 384v-154l94 81v-63h376v63l94 -81v154h-564zM230 384v-154l94 81v-63h376v63l94 -81
v154h-564z" />
    <glyph glyph-name="shiheyemian" unicode="&#xe663;" 
d="M800 672v-306l-96 83v-65h-192v-48h192v-53l96 83v-270h-336l83 96h-59v96h-48v-96h-59l83 -96h-240v270l96 -84v60h48v48h-48v59l-96 -83v306h240l-83 -96h59v-144h48v144h59l-83 96h336zM512 896q-104 0 -199 -40q-92 -39 -163 -110t-110 -163q-40 -95 -40 -199
t40 -199q39 -92 110 -163t163 -110q95 -40 199 -40t199 40q92 39 163 110t110 163q40 95 40 199t-40 199q-39 92 -110 163t-163 110q-95 40 -199 40zM848 48h-672v672h672v-672z" />
    <glyph glyph-name="chazhao1" unicode="&#xe664;" 
d="M637 462q0 -61 -34.5 -112.5t-91 -75t-117 -11.5t-104 55.5t-55.5 104t11.5 117.5t74.5 91t113 34q55 0 101.5 -27.5t74 -74t27.5 -101.5zM512 896q-104 0 -199 -40q-92 -39 -163 -110t-110 -163q-40 -95 -40 -199t40 -199q39 -92 110 -163t163 -110q95 -40 199 -40
t199 40q92 39 163 110t110 163q40 95 40 199t-40 199q-39 92 -110 163t-163 110q-95 40 -199 40zM869 27q-19 -18 -44.5 -18t-44.5 18l-179 180q-3 3 -5 6q-63 -41 -137 -47t-142 22.5t-115.5 86.5t-61 130.5t7.5 143.5t74 124t124 74.5t143.5 8t131 -61t87 -115.5
t22.5 -141.5t-47 -136.5l6 -6l180 -179q18 -18 18 -44t-18 -45z" />
    <glyph glyph-name="quanping" unicode="&#xe665;" 
d="M512 896q-104 0 -199 -40q-92 -39 -163 -110t-110 -163q-40 -95 -40 -199t40 -199q39 -92 110 -163t163 -110q95 -40 199 -40t199 40q92 39 163 110t110 163q40 95 40 199t-40 199q-39 92 -110 163t-163 110q-95 40 -199 40zM458 243l-109 -108l79 -79l1 -2l-1 -2
q0 -2 -4 -2l-238 -3q-5 0 -8 3.5t-3 7.5v242q0 3 2 3h3l81 -80l109 109q3 3 7.5 3t7.5 -3l73 -74q3 -2 3 -7t-3 -8zM458 510l-73 -74q-3 -3 -7.5 -3t-7.5 3l-109 109l-81 -80h-3q-2 0 -2 3v240q0 5 3.5 8t7.5 3l244 2l1 -0.5t1 -1.5l1 -1l-1 -2l-79 -79l105 -112
q3 -3 3 -7.5t-3 -7.5zM849 58q0 -4 -3 -7.5t-8 -3.5l-238 4q-4 0 -4 1l-1 2l80 81l-109 109q-3 2 -3 7t3 8l74 73q2 3 6.5 3t7.5 -3l109 -109l81 80h3q2 0 2 -3v-242zM849 468q0 -3 -2 -3h-3l-81 80l-109 -109q-3 -3 -7.5 -3t-7.5 3l-73 74q-3 3 -3 7.5t3 7.5l109 108
l-79 79l-1 2l1 2q-3 5 -2 5l244 -2q4 0 7.5 -3.5t3.5 -7.5v-240z" />
    <glyph glyph-name="shouxuanxiang" unicode="&#xe666;" 
d="M512 896q-104 0 -199 -40q-92 -39 -163 -110t-110 -163q-40 -95 -40 -199t40 -199q39 -92 110 -163t163 -110q95 -40 199 -40t199 40q92 39 163 110t110 163q40 95 40 199t-40 199q-39 92 -110 163t-163 110q-95 40 -199 40zM476 79q0 -22 -15.5 -38t-38.5 -16h-215
q-22 0 -38 16t-16 38v215q0 23 16 38.5t38 15.5h215q23 0 38.5 -15.5t15.5 -38.5v-215zM476 474q0 -23 -15.5 -38.5t-38.5 -15.5h-215q-22 0 -38 15.5t-16 38.5v215q0 22 16 38t38 16h215q23 0 38.5 -16t15.5 -38v-215zM871 79q0 -22 -16 -38t-38 -16h-215q-23 0 -38.5 16
t-15.5 38v215q0 23 15.5 38.5t38.5 15.5h215q22 0 38 -15.5t16 -38.5v-215zM871 474q0 -23 -16 -38.5t-38 -15.5h-215q-23 0 -38.5 15.5t-15.5 38.5v215q0 22 15.5 38t38.5 16h215q22 0 38 -16t16 -38v-215z" />
    <glyph glyph-name="xuanzhuan" unicode="&#xe667;" 
d="M512 896q-104 0 -199 -40q-92 -39 -163 -110t-110 -163q-40 -95 -40 -199t40 -199q39 -92 110 -163t163 -110q95 -40 199 -40t199 40q92 39 163 110t110 163q40 95 40 199t-40 199q-39 92 -110 163t-163 110q-95 40 -199 40zM864 472q0 -12 -8.5 -20.5t-20.5 -8.5h-206
q-9 0 -16.5 5t-11 13t-1.5 17t8 15l64 63q-33 31 -74.5 47t-85.5 16q-64 0 -118 -31.5t-86 -85.5t-32 -118t32 -118t86 -85.5t118 -31.5q54 0 103 24t82 67q4 5 10.5 5.5t11.5 -3.5l63 -64q4 -3 4 -9t-3 -10q-50 -61 -121.5 -94.5t-149.5 -33.5q-96 0 -178 49
q-80 46 -127 126q-48 82 -48 178t48 178q47 80 127 126q82 49 178 49q67 0 130.5 -26t112.5 -72l59 60q6 6 15 8t17 -1.5t13 -11t5 -16.5v-206z" />
    <glyph glyph-name="nishizhenxuanzhuan" unicode="&#xe669;" 
d="M512 896q-104 0 -199 -40q-92 -39 -163 -110t-110 -163q-40 -95 -40 -199t40 -199q39 -92 110 -163t163 -110q95 -40 199 -40t199 40q92 39 163 110t110 163q40 95 40 199t-40 199q-39 92 -110 163t-163 110q-95 40 -199 40zM512 30q-79 0 -150.5 33.5t-121.5 94.5
q-4 4 -3.5 10t4.5 9l63 64q5 4 11.5 4t10.5 -5q33 -44 82.5 -68t104.5 -24q64 0 118 32t86 86t32 118t-32 118.5t-86.5 86t-118.5 31.5q-44 0 -86 -16.5t-74 -46.5l63 -64q7 -6 8.5 -14.5t-2 -17t-11 -13.5t-16.5 -5h-206q-12 0 -21 8.5t-9 21.5v206q0 9 5 16.5t13.5 11
t17 1.5t15.5 -8l60 -59q49 46 112.5 71.5t130.5 25.5q95 0 177 -47q79 -45 126 -123q49 -81 52 -175v-18q-3 -94 -52 -174q-47 -78 -126 -124q-82 -47 -177 -47zM867 393v-18v18z" />
    <glyph glyph-name="yinzhang1" unicode="&#xe66c;" 
d="M867 393v-18v18zM512 896q-104 0 -199 -40q-92 -39 -163 -110t-110 -163q-40 -95 -40 -199t40 -199q39 -92 110 -163t163 -110q95 -40 199 -40t199 40q92 39 163 110t110 163q40 95 40 199t-40 199q-39 92 -110 163t-163 110q-95 40 -199 40zM386 672q-82 -15 -164 -24
v-120h167v-47h-167v-132h164v-47h-164v-65h-49v460l39 -10q65 8 162 42l25 -49q7 -18 -13 -8zM476 643v-463h-50v510h244v-373q0 -43 -35 -43h-74l-18 55h67q10 0 10 10v304h-144zM532 165q1 7 3 13q8 32 29.5 51.5t47.5 19.5q13 0 26 -5l8 -4q2 0 4 -1l98 -41h1q5 -2 10 -2
q11 0 20 8.5t13 22.5l1 14l45 -19l-3 -12q-8 -32 -29 -51.5t-48 -19.5q-13 1 -25 5v1l-38 16l-6 2l-63 26l-5 1q-5 2 -10 2q-11 0 -19.5 -8.5t-12.5 -21.5q-2 -5 -2 -10v-5l-42 18h-3zM850 119v-4l-2 -5q-8 -32 -29 -51.5t-48 -19.5q-10 0 -20 3l-42 17l-7 2l-65 27
q-6 2 -12 2q-11 0 -19.5 -8t-12.5 -22q-2 -5 -2 -9v-6l-42 18v1l-3 1l3 13q9 32 30 51.5t47 19.5q13 0 26 -5l8 -4q2 0 4 -1l93 -39l5 -1l10 -2q12 0 20.5 8.5t12.5 22.5l1 12l45 -18z" />
    <glyph glyph-name="guangxueshuiyin" unicode="&#xe66d;" horiz-adv-x="1093" 
d="M549 388q0 27 -17.5 47.5t-42 20.5t-43 -21t-18.5 -47t17.5 -44t43 -18t43.5 18.5t17 43.5zM549 388q0 27 -17.5 47.5t-42 20.5t-43 -21t-18.5 -47t17.5 -44t43 -18t43.5 18.5t17 43.5zM549 388q0 27 -17.5 47.5t-42 20.5t-43 -21t-18.5 -47t17.5 -44t43 -18t43.5 18.5
t17 43.5zM549 388q0 27 -17.5 47.5t-42 20.5t-43 -21t-18.5 -47t17.5 -44t43 -18t43.5 18.5t17 43.5zM549 388q0 27 -17.5 47.5t-42 20.5t-43 -21t-18.5 -47t17.5 -44t43 -18t43.5 18.5t17 43.5zM549 388q0 27 -17.5 47.5t-42 20.5t-43 -21t-18.5 -47t17.5 -44t43 -18
t43.5 18.5t17 43.5zM549 388q0 27 -17.5 47.5t-42 20.5t-43 -21t-18.5 -47t17.5 -44t43 -18t43.5 18.5t17 43.5zM549 388q0 27 -17.5 47.5t-42 20.5t-43 -21t-18.5 -47t17.5 -44t43 -18t43.5 18.5t17 43.5zM549 388q0 27 -17.5 47.5t-42 20.5t-43 -21t-18.5 -47t17.5 -44
t43 -18t43.5 18.5t17 43.5zM549 388q0 27 -17.5 47.5t-42 20.5t-43 -21t-18.5 -47t17.5 -44t43 -18t43.5 18.5t17 43.5zM581 896q-104 0 -199 -40q-92 -39 -163 -110t-110 -163q-40 -95 -40 -199t40 -199q39 -92 110 -163t163 -110q95 -40 199 -40t199 40q92 39 163 110
t110 163q40 95 40 199t-40 199q-39 92 -110 163t-163 110q-95 40 -199 40zM609 589q-10 4 -16 13.5t-6 21.5q-1 5 1 9v54h-171v-63q0 -4 -1 -7q-3 -14 -13 -22t-24 -8q-4 -1 -7 1h-97q-36 -2 -50 -26q-12 -19 -12 -65v3v-272q4 -31 19.5 -43.5t52.5 -12.5h-16l58 -1h256
q15 0 25.5 -11t10.5 -26.5t-10.5 -27t-25.5 -11.5h-371q-30 0 -51 21t-22 51v421q0 30 20.5 51.5t50.5 22.5h133v38q4 25 23.5 42.5t45.5 18.5h176q30 0 51.5 -22t21.5 -52v-25h123q30 0 51.5 -22t21.5 -52v-79q-1 -18 -12 -29.5t-26 -11.5q-12 0 -21.5 7.5t-12.5 18.5h-3
v16v-1q0 41 -10 57q-11 18 -41 19h-107q-8 0 -15 4zM611 389q0 -34 -16.5 -62.5t-44.5 -45t-61 -16.5t-61 16.5t-44.5 45t-16.5 62.5t16.5 64t44.5 48t60.5 18t60.5 -18t45 -48t17 -64zM1019 181q-1 -2 -1 -6l-2 -6q-10 -39 -36 -63.5t-59 -24.5q-13 0 -25 4l-53 21l-7 3
l-77 31l-5 3q-7 2 -14 2q-14 0 -24.5 -10t-15.5 -27q-2 -6 -3 -12v-6l-51 22v1l-4 1l4 16q10 40 36 64t59 24q17 0 32 -6l10 -5q3 0 5 -1l115 -48l7 -1q6 -2 12 -3q14 0 25 10.5t16 27.5l1 15l56 -23zM1019 359q-10 -40 -36.5 -64t-59.5 -24q-16 0 -31 6v2l-46 19l-8 2
l-78 33l-6 1q-6 2 -13 3q-14 0 -24.5 -10.5t-15.5 -27.5q-2 -6 -2 -12v-6l-52 22h-4l4 16q10 40 36.5 64t59.5 24q16 0 31 -6q5 -2 10 -5q3 0 5 -2l122 -50h1q6 -2 13 -2q14 0 24.5 10t15.5 27l1 12v6l57 -23zM489 456q-24 0 -42.5 -21t-18.5 -47t17.5 -44t43 -18t43.5 18.5
t17.5 44.5t-18 46.5t-42.5 20.5zM549 388q0 27 -17.5 47.5t-42 20.5t-43 -21t-18.5 -47t17.5 -44t43 -18t43.5 18.5t17 43.5zM549 388q0 27 -17.5 47.5t-42 20.5t-43 -21t-18.5 -47t17.5 -44t43 -18t43.5 18.5t17 43.5zM549 388q0 27 -17.5 47.5t-42 20.5t-43 -21t-18.5 -47
t17.5 -44t43 -18t43.5 18.5t17 43.5zM549 388q0 27 -17.5 47.5t-42 20.5t-43 -21t-18.5 -47t17.5 -44t43 -18t43.5 18.5t17 43.5zM549 388q0 27 -17.5 47.5t-42 20.5t-43 -21t-18.5 -47t17.5 -44t43 -18t43.5 18.5t17 43.5zM549 388q0 27 -17.5 47.5t-42 20.5t-43 -21
t-18.5 -47t17.5 -44t43 -18t43.5 18.5t17 43.5zM549 388q0 27 -17.5 47.5t-42 20.5t-43 -21t-18.5 -47t17.5 -44t43 -18t43.5 18.5t17 43.5zM549 388q0 27 -17.5 47.5t-42 20.5t-43 -21t-18.5 -47t17.5 -44t43 -18t43.5 18.5t17 43.5zM549 388q0 27 -17.5 47.5t-42 20.5
t-43 -21t-18.5 -47t17.5 -44t43 -18t43.5 18.5t17 43.5zM549 388q0 27 -17.5 47.5t-42 20.5t-43 -21t-18.5 -47t17.5 -44t43 -18t43.5 18.5t17 43.5z" />
    <glyph glyph-name="erweitiaoma" unicode="&#xe66e;" 
d="M512 896q-104 0 -199 -40q-92 -39 -163 -110t-110 -163q-40 -95 -40 -199t40 -199q39 -92 110 -163t163 -110q95 -40 199 -40t199 40q92 39 163 110t110 163q40 95 40 199t-40 199q-39 92 -110 163t-163 110q-95 40 -199 40zM842 54h-660q-17 0 -27 10t-10 26v588
q0 16 10 26t27 10h660q17 0 27 -10t10 -26v-588q0 -16 -10 -26t-27 -10zM218 127h588v514h-588v-514zM622 568h110v-368h-110v368zM549 568h36v-368h-36v368zM439 568h73v-368h-73v368zM292 568h110v-368h-110v368z" />
    <glyph glyph-name="yemianxianshi" unicode="&#xe66f;" 
d="M561 384q0 -23 -13.5 -37t-35.5 -14t-35.5 14t-13.5 37t13.5 37t35.5 14t35.5 -14t13.5 -37zM522 586q-115 0 -213 -50q-104 -53 -165 -152q61 -99 165 -153q98 -50 213 -50q112 0 203 50q93 52 155 153q-62 101 -155 152q-91 50 -203 50zM512 232q-41 0 -74.5 20t-53 55
t-19.5 77t19.5 77t53 55t74.5 20t74.5 -20t53 -55t19.5 -77t-19.5 -77t-53 -55t-74.5 -20zM512 896q-104 0 -199 -40q-92 -39 -163 -110t-110 -163q-40 -95 -40 -199t40 -199q39 -92 110 -163t163 -110q95 -40 199 -40t199 40q92 39 163 110t110 163q40 95 40 199t-40 199
q-39 92 -110 163t-163 110q-95 40 -199 40zM512 80q-159 0 -282.5 76.5t-207.5 227.5q84 151 207.5 227.5t282.5 76.5t282.5 -76.5t207.5 -227.5q-84 -151 -207.5 -227.5t-282.5 -76.5z" />
    <glyph glyph-name="suoxiao1" unicode="&#xe670;" 
d="M436 710h-7q-68 -1 -125 -35t-90 -92t-32.5 -125.5t34.5 -124.5t91.5 -90.5t125 -33.5t125 33.5t91.5 90.5t34.5 124.5t-32.5 125.5t-90 92t-125 35zM535 413h-198q-20 0 -34.5 14.5t-14.5 35t14.5 35t34.5 14.5h198q20 0 34.5 -14.5t14.5 -35t-14.5 -35t-34.5 -14.5z
M512 896q-104 0 -199 -40q-92 -39 -163 -110t-110 -163q-40 -95 -40 -199t40 -199q39 -92 110 -163t163 -110q95 -40 199 -40t199 40q92 39 163 110t110 163q40 95 40 199t-40 199q-39 92 -110 163t-163 110q-95 40 -199 40zM866 32q-14 -14 -34.5 -14t-34.5 15l-154 153
q-45 -34 -98 -51.5t-109 -17.5q-94 0 -175 47q-78 46 -124 124q-47 81 -47 175q0 74 30 141t85 116.5t125.5 72t144 14t137 -45.5t106.5 -97.5t57.5 -132.5t-1.5 -144t-61 -131l153 -154q15 -14 15 -34.5t-15 -35.5z" />
    <glyph glyph-name="fangda" unicode="&#xe671;" 
d="M426 702q-74 0 -136 -41.5t-90.5 -110.5t-14 -142t67 -125.5t125.5 -67t142 14t110 90.5t41 136q0 49 -18.5 94t-53 79.5t-79.5 53.5t-94 19zM524 407h-49v-49q0 -20 -14.5 -34.5t-34.5 -14.5t-34.5 14.5t-14.5 34.5v49h-49q-20 0 -34.5 14.5t-14.5 35t14.5 34.5t34.5 14
h49v49q0 21 14.5 35t34.5 14t34.5 -14t14.5 -35v-49h49q20 0 34.5 -14t14.5 -34.5t-14.5 -35t-34.5 -14.5zM512 896q-104 0 -199 -40q-92 -39 -163 -110t-110 -163q-40 -95 -40 -199t40 -199q39 -92 110 -163t163 -110q95 -40 199 -40t199 40q92 39 163 110t110 163
q40 95 40 199t-40 199q-39 92 -110 163t-163 110q-95 40 -199 40zM853 29q-14 -14 -34.5 -14t-34.5 14l-152 152q-45 -33 -97.5 -50.5t-108.5 -17.5q-93 0 -173 47q-78 45 -124 123q-47 80 -47 173q0 56 18 108.5t51 97.5q56 75 141 111q83 35 173 25q92 -11 167 -67
q54 -41 89 -99.5t45 -126t-7 -134t-58 -120.5l152 -153q15 -14 15 -34.5t-15 -34.5z" />
    <glyph glyph-name="guanyu" unicode="&#xe672;" 
d="M512 719q-91 0 -169 -46q-75 -44 -120 -120q-45 -78 -45 -169t45 -169q45 -75 120 -120q78 -45 169 -45t169 45q75 45 120 120q45 78 45 169q0 67 -25 128t-72.5 108.5t-108.5 73t-128 25.5zM551 168q0 -8 -5.5 -14t-13.5 -6h-40q-8 0 -13.5 6t-5.5 14v275q0 8 5.5 14
t13.5 6h40q8 0 13.5 -6t5.5 -14v-275zM551 561q0 -8 -5.5 -14t-13.5 -6h-40q-8 0 -13.5 6t-5.5 14v39q0 9 5.5 14.5t13.5 5.5h40q8 0 13.5 -5.5t5.5 -14.5v-39zM512 896q-104 0 -199 -40q-92 -39 -163 -110t-110 -163q-40 -95 -40 -199t40 -199q39 -92 110 -163t163 -110
q95 -40 199 -40t199 40q92 39 163 110t110 163q40 95 40 199t-40 199q-39 92 -110 163t-163 110q-95 40 -199 40zM512 -29q-112 0 -209 56q-93 55 -148 148q-56 97 -56 209t56 209q55 93 148 148q97 56 209 56t209 -56q93 -55 148 -148q56 -97 56 -209t-56 -209
q-55 -93 -148 -148q-97 -56 -209 -56z" />
    <glyph glyph-name="shouye" unicode="&#xe673;" 
d="M512 896q-104 0 -199 -40q-92 -39 -163 -110t-110 -163q-40 -95 -40 -199t40 -199q39 -92 110 -163t163 -110q95 -40 199 -40t199 40q92 39 163 110t110 163q40 95 40 199t-40 199q-39 92 -110 163t-163 110q-95 40 -199 40zM801 89q11 -10 15 -24t0 -28t-14 -24
t-24.5 -14t-28.5 0t-24 15l-334 334q-15 16 -15 37t14 36l335 335q16 15 38 15t38 -15.5t16 -37.5t-16 -38l-295 -295zM207 717q-1 15 6.5 27.5t20 20t27 7.5t27 -7.5t19.5 -20t7 -27.5v-665q0 -22 -16 -37t-38 -15t-37.5 15t-15.5 37v665z" />
    <glyph glyph-name="weiye" unicode="&#xe674;" 
d="M512 896q-104 0 -199 -40q-92 -39 -163 -110t-110 -163q-40 -95 -40 -199t40 -199q39 -92 110 -163t163 -110q95 -40 199 -40t199 40q92 39 163 110t110 163q40 95 40 199t-40 199q-39 92 -110 163t-163 110q-95 40 -199 40zM634 348l-337 -336q-16 -16 -38 -16t-38 15.5
t-16 38t16 38.5l297 297l-297 296q-10 11 -14 25t-0.5 28t14 24t24.5 14t28 0t24 -14l337 -337q14 -15 14 -36t-14 -37zM819 50q0 -14 -7.5 -27t-20 -20.5t-27 -7.5t-27 7.5t-20 20.5t-6.5 27v669q0 22 15.5 37.5t38 15.5t38 -15.5t16.5 -37.5v-669z" />
    <glyph glyph-name="qifengqianzhang" unicode="&#xe675;" 
d="M512 896q-104 0 -199 -40q-92 -39 -163 -110t-110 -163q-40 -95 -40 -199t40 -199q39 -92 110 -163t163 -110q95 -40 199 -40t199 40q92 39 163 110t110 163q40 95 40 199t-40 199q-39 92 -110 163t-163 110q-95 40 -199 40zM469 188h-387v78h309v353h78v-431zM555 188
v431h78v-353h309v-78h-387z" />
    <glyph glyph-name="duoyeqianzhang" unicode="&#xe676;" 
d="M246 498v-228h532v228h-532zM246 498v-228h532v228h-532zM512 896q-104 0 -199 -40q-92 -39 -163 -110t-110 -163q-40 -95 -40 -199t40 -199q39 -92 110 -163t163 -110q95 -40 199 -40t199 40q92 39 163 110t110 163q40 95 40 199t-40 199q-39 92 -110 163t-163 110
q-95 40 -199 40zM837 53h-59v81h-532v-81h-59v140h650v-140zM837 211h-650v346h650v-346zM837 575h-650v140h59v-81h532v81h59v-140zM778 498h-532v-228h532v228z" />
    <glyph glyph-name="shougonggaizhang" unicode="&#xe677;" 
d="M815 238v20h-21h2h-140h-5q-9 2 -16 7t-11 13l-65 152q-5 13 0 25.5t17 18.5q45 20 66.5 64t11 92t-49 78.5t-87.5 30t-87 -31.5t-48 -78.5t12 -91.5t67 -64q12 -6 17 -18.5t-1 -24.5l-65 -152q-6 -14 -22 -19q-4 -1 -10 -1h-154h3h-20v-21v4v-21v3v-20h21h-4h570h-1h20
v22v-3v17v-1zM815 238v20h-21h2h-140h-5q-9 2 -16 7t-11 13l-65 152q-5 13 0 25.5t17 18.5q45 20 66.5 64t11 92t-49 78.5t-87.5 30t-87 -31.5t-48 -78.5t12 -91.5t67 -64q12 -6 17 -18.5t-1 -24.5l-65 -152q-6 -14 -22 -19q-4 -1 -10 -1h-154h3h-20v-21v4v-21v3v-20h21h-4
h570h-1h20v22v-3v17v-1zM512 896q-104 0 -199 -40q-92 -39 -163 -110t-110 -163q-40 -95 -40 -199t40 -199q39 -92 110 -163t163 -110q95 -40 199 -40t199 40q92 39 163 110t110 163q40 95 40 199t-40 199q-39 92 -110 163t-163 110q-95 40 -199 40zM848 41h-673
q-13 0 -22.5 10t-9.5 23.5t9.5 23.5t22.5 10h673q9 0 17 -4.5t13 -12t5 -17t-5 -17t-13 -12t-17 -4.5zM831 137h-635q-22 0 -37 15t-17 36v85q2 21 16.5 35.5t35.5 16.5h165l45 103q-57 38 -80 102t-3.5 129t74 105.5t122.5 41t123 -40t74.5 -105.5t-3 -129t-79.5 -102
l45 -104h154q20 -2 34 -15t17 -33v-91q-2 -20 -16.5 -34t-34.5 -15zM796 258h-140h-5q-9 1 -16 6.5t-11 13.5l-65 152q-5 13 0 25.5t17 18.5q45 20 66.5 64t11 92t-49 78.5t-87.5 30t-87 -31.5t-48 -78.5t12 -91.5t67 -64q12 -6 17 -18.5t-1 -24.5l-65 -152q-6 -14 -22 -19
q-4 -1 -10 -1h-154h3h-20v-21v4v-21v3v-20h21h-4h570h-1h20v22v-3v17v-1v20h-21h2zM815 238v20h-21h2h-140h-5q-9 2 -16 7t-11 13l-65 152q-5 13 0 25.5t17 18.5q45 20 66.5 64t11 92t-49 78.5t-87.5 30t-87 -31.5t-48 -78.5t12 -91.5t67 -64q12 -6 17 -18.5t-1 -24.5
l-65 -152q-6 -14 -22 -19q-4 -1 -10 -1h-154h3h-20v-21v4v-21v3v-20h21h-4h570h-1h20v22v-3v17v-1zM815 238v20h-21h2h-140h-5q-9 2 -16 7t-11 13l-65 152q-5 13 0 25.5t17 18.5q45 20 66.5 64t11 92t-49 78.5t-87.5 30t-87 -31.5t-48 -78.5t12 -91.5t67 -64q12 -6 17 -18.5
t-1 -24.5l-65 -152q-6 -14 -22 -19q-4 -1 -10 -1h-154h3h-20v-21v4v-21v3v-20h21h-4h570h-1h20v22v-3v17v-1zM794 258h2q7 -1 12.5 -6t6.5 -13v-1v20h-21zM209 258v-21q0 8 5 13.5t12 7.5h3h-20zM226 203q-6 2 -11 6.5t-6 10.5v3v-20h21h-4zM815 222q-1 -7 -6.5 -12.5
t-12.5 -6.5h-1h20v22v-3zM815 222v-19h-20h20v22v-3zM794 258h21v-20v20h-21zM226 203h-17v20v-20h21h-4zM209 258v-21v21h20h-20z" />
    <glyph glyph-name="pilianggaizhang" unicode="&#xe679;" 
d="M664 704q-49 0 -90.5 -24.5t-65.5 -65.5t-24 -90t24 -90t65.5 -65t90 -24t90 24t65.5 65t24 90t-24 90t-65.5 65.5t-89.5 24.5zM771 555l-100 -100q-8 -9 -20 -9t-20 9l-58 57q-12 12 -7.5 28t20.5 20t27 -8l38 -37l80 80q8 8 20 8t20 -8t8 -20t-8 -20zM512 896
q-104 0 -199 -40q-92 -39 -163 -110t-110 -163q-40 -95 -40 -199t40 -199q39 -92 110 -163t163 -110q95 -40 199 -40t199 40q92 39 163 110t110 163q40 95 40 199t-40 199q-39 92 -110 163t-163 110q-95 40 -199 40zM664 760q71 0 130.5 -39.5t87 -106t13.5 -136.5t-64 -121
q-38 -37 -87 -55t-101 -13.5t-97.5 31t-75.5 69.5t-39 94t4.5 102t47 91t81 62t100.5 22zM875 170h-70v-101q0 -12 -8.5 -20.5t-20.5 -8.5h-572q-12 0 -20.5 8.5t-8.5 20.5v544q0 11 8.5 19.5t20.5 8.5h71v101q0 12 8 20.5t20 8.5h131q12 0 20 -8.5t8 -20t-8 -20t-20 -8.5
h-103v-487h516v54q0 11 8.5 19.5t20 8.5t20 -8.5t8.5 -19.5v-83q0 -11 -8.5 -19.5t-19.5 -8.5h-1zM275 198v386h-43v-487h516v73h-445q-12 0 -20 8.5t-8 19.5z" />
    <glyph glyph-name="chukuguanli" unicode="&#xe67c;" 
d="M186 896h652q186 0 186 -186v-652q0 -186 -186 -186h-652q-186 0 -186 186v652q0 186 186 186zM213 85v424l78 174h442l78 -171v-427h-598zM393 303h80v-119h79v119h79l-119 120zM341 632l-53 -120h448l-53 120h-342z" />
    <glyph glyph-name="zhushi" unicode="&#xe687;" 
d="M512 -128q-104 0 -199 40q-92 39 -163 110t-110 163q-40 95 -40 199t40 199q39 92 110 163t163 110q95 40 199 40t199 -40q92 -39 163 -110t110 -163q40 -95 40 -199t-40 -199q-39 -92 -110 -163t-163 -110q-95 -40 -199 -40zM512 794q-111 0 -206 -57q-93 -54 -147 -147
q-57 -95 -57 -206t57 -206q54 -93 147 -147q95 -57 206 -57t206 57q93 54 147 147q57 95 57 206t-57 206q-54 93 -147 147q-95 57 -206 57zM563 133q0 -56 -51 -56q-23 0 -37 15t-14 41v292q0 30 13.5 45.5t37.5 15.5q27 0 39 -15t12 -46v-292zM512 640zM461 640
q0 -21 15 -36t36 -15t36 15t15 36q0 14 -7 25.5t-18.5 18.5t-25.5 7t-25.5 -7t-18.5 -18.5t-7 -25.5z" />
    <glyph glyph-name="tiaozhuanweiye" unicode="&#xe690;" 
d="M795 384l-663 -512v1024zM795 896h97v-1024h-97v1024z" />
    <glyph glyph-name="shangyiye-copy" unicode="&#xe718;" 
d="M603 387l-363 -363q-25 -25 -25 -60.5t25 -60.5t60.5 -25t60.5 25l423 423q25 26 25 61t-25 60l-423 424q-16 16 -38.5 22t-44.5 0t-38 -22t-22 -38.5t0 -44.5t22 -38z" />
    <glyph glyph-name="tiaozhuanweiye-copy" unicode="&#xe719;" 
d="M229 384l663 512v-1024zM229 -128h-97v1024h97v-1024z" />
    <glyph glyph-name="qianzhangliebiao-copy" unicode="&#xe71a;" horiz-adv-x="1150" 
d="M235 630q-21 0 -35 -14.5t-14 -35t14 -35t34.5 -14.5t35 14.5t14.5 35t-14.5 35t-34.5 14.5zM235 235q-21 0 -35 -14.5t-14 -35t14 -35t34.5 -14.5t35 14.5t14.5 35t-14.5 35t-34.5 14.5zM235 432q-21 0 -35 -14.5t-14 -34.5t14 -34.5t34.5 -14.5t35 14.5t14.5 34.5
t-14.5 34.5t-34.5 14.5zM728 235h-296q-20 0 -34.5 -14.5t-14.5 -35t14.5 -35t34.5 -14.5h296q20 0 34.5 14.5t14.5 35t-14.5 35t-34.5 14.5zM728 630h-296q-20 0 -34.5 -14.5t-14.5 -35t14.5 -35t34.5 -14.5h296q13 0 24.5 6.5t18 18t6.5 25t-6.5 24.5t-18 18t-24.5 7z
M728 432h-296q-20 0 -34.5 -14.5t-14.5 -34.5t14.5 -34.5t34.5 -14.5h296q20 0 34.5 14.5t14.5 34.5t-14.5 34.5t-34.5 14.5zM639 -114h-470q-46 0 -84.5 22.5t-61.5 61.5t-23 85v672q0 46 23 85t61.5 61.5t84.5 22.5h626q45 0 84 -22.5t61.5 -61.5t22.5 -85v-367h-87v367
q0 34 -24 58t-57 24h-626q-34 0 -58 -24t-24 -58v-672q0 -34 24 -58t58 -24h470v-87zM979 49q-9 9 -15 22t-6 27q1 26 20 44v0q6 6 13 11q17 14 26 34t9 42q0 29 -14.5 53t-38.5 38t-53 14t-53.5 -14t-38.5 -38t-14 -53q0 -22 9 -42t25 -34q8 -5 14 -11v0q19 -18 19 -44
q0 -14 -5.5 -27t-15.5 -22h-156q-6 0 -10.5 -4.5t-4.5 -10.5v-96h462v96q0 6 -4.5 10.5t-11.5 4.5h-156zM722 -95h396v-33h-396v33z" />
    <glyph glyph-name="zhushiliebiao-copy" unicode="&#xe71b;" horiz-adv-x="1209" 
d="M223 643q-14 0 -26 -7.5t-17.5 -21t-2.5 -27.5t13 -24t24 -12.5t27 3t21 17t8 25.5q0 20 -14 33.5t-33 13.5zM223 269q-14 0 -26 -8t-17.5 -21t-2.5 -27t13 -24t24 -12.5t27 2.5t21 17t8 26q0 20 -14 33.5t-33 13.5zM223 456q-14 0 -26 -8t-17.5 -21t-2.5 -27t13 -24
t24 -12.5t27 3t21 17t8 25.5q0 20 -14 33.5t-33 13.5zM691 269h-281q-19 0 -33 -13.5t-14 -33t14 -33.5t33 -14h281q19 0 33 14t14 33.5t-14 33t-33 13.5zM691 643h-281q-13 0 -23.5 -6t-17 -17t-6.5 -23.5t6.5 -23.5t17 -17t23.5 -6h281q12 0 23 6t17.5 17t6.5 23.5
t-6.5 23.5t-17.5 17t-23 6zM691 456h-281q-13 0 -23.5 -6t-17 -17t-6.5 -23.5t6.5 -23.5t17 -17t23.5 -6h281q12 0 23 6t17.5 17t6.5 23.5t-6.5 23.5t-17.5 17t-23 6zM607 -62h-447q-43 0 -80 21.5t-58.5 58t-21.5 80.5v638q0 43 21.5 80t58.5 58.5t80 21.5h594
q43 0 80 -21.5t58.5 -58.5t21.5 -80v-348h-83v348q0 32 -22.5 54.5t-54.5 22.5h-594q-32 0 -54.5 -22.5t-22.5 -54.5v-638q0 -32 22.5 -55t54.5 -23h447v-82zM1144 340h-339q-52 0 -52 -53v-235q0 -52 52 -52h339q53 0 53 52v235q0 53 -53 53zM1105 105h-261q-13 0 -13 13
t13 13h261q13 0 13 -13t-13 -13zM1105 209h-261q-13 0 -13 13t13 13h261q13 0 13 -13t-13 -13zM962 52h-157v-135q0 -7 4 -12.5t10 -8t13 -1.5t11 6l119 114v37zM962 52z" />
    <glyph glyph-name="suolvetu-copy" unicode="&#xe71c;" horiz-adv-x="1158" 
d="M238 626q-15 0 -27.5 -8.5t-18.5 -22.5t-3 -29t13.5 -25.5t25.5 -13.5t29 3t22.5 18.5t8.5 27.5q0 21 -14.5 35.5t-35.5 14.5zM238 226q-15 0 -27.5 -8.5t-18.5 -22.5t-3 -29t13.5 -25.5t25.5 -13.5t29 3t22.5 18.5t8.5 27.5q0 21 -14.5 35.5t-35.5 14.5zM238 426
q-21 0 -35.5 -14.5t-14.5 -35.5t14.5 -35.5t35.5 -14.5t35.5 14.5t14.5 35.5t-14.5 35.5t-35.5 14.5zM738 226h-300q-13 0 -25 -6.5t-18.5 -18t-6.5 -25t6.5 -25t18.5 -18.5t25 -7h300q13 0 25 7t18.5 18.5t6.5 25t-6.5 25t-18.5 18t-25 6.5zM738 626h-300q-13 0 -25 -6.5
t-18.5 -18.5t-6.5 -25t6.5 -25t18.5 -18.5t25 -6.5h300q13 0 25 6.5t18.5 18.5t6.5 25t-6.5 25t-18.5 18.5t-25 6.5zM738 426h-300q-13 0 -25 -6.5t-18.5 -18.5t-6.5 -25t6.5 -25t18.5 -18.5t25 -6.5h300q13 0 25 6.5t18.5 18.5t6.5 25t-6.5 25t-18.5 18.5t-25 6.5z
M648 -128h-477q-46 0 -85.5 23t-62.5 62.5t-23 85.5v682q0 46 23 85.5t62.5 62.5t85.5 23h634q47 0 86 -23t62 -62.5t24 -85.5v-372h-89v372q0 34 -24 58t-59 24h-634q-34 0 -58 -24t-24 -58v-682q0 -34 24 -58t58 -24h477v-89zM931 226q10 0 17.5 -7.5t7.5 -17.5v-101
q0 -11 -7.5 -18.5t-17.5 -7.5h-101q-11 0 -18.5 7.5t-6.5 18.5v101q-1 10 6.5 17.5t18.5 7.5h101zM931 24q10 0 17.5 -7.5t7.5 -17.5v-102q0 -10 -7.5 -17.5t-17.5 -7.5h-101q-11 0 -18.5 7.5t-6.5 17.5v102q-1 10 6.5 17.5t18.5 7.5h101zM1133 226q11 0 18 -7.5t7 -17.5
v-101q0 -11 -7 -18.5t-18 -7.5h-101q-10 0 -17.5 7.5t-7.5 18.5v101q0 10 7.5 17.5t17.5 7.5h101zM1133 24q11 0 18 -7.5t7 -17.5v-102q0 -10 -7 -17.5t-18 -7.5h-101q-10 0 -17.5 7.5t-7.5 17.5v102q-1 10 7 17.5t18 7.5h101z" />
    <glyph glyph-name="xiala-copy" unicode="&#xe71d;" 
d="M769 535q-9 9 -22.5 9t-22.5 -9l-233 -234l-234 234q-6 6 -14.5 8.5t-17 0.5t-14.5 -8.5t-8 -15t0.5 -17t8.5 -14.5l256 -256q9 -9 22.5 -9t22.5 9l256 256q10 10 10 23t-10 23z" />
  </font>
</defs>
</svg>
